<?xml version="1.0" standalone="no"?>
<!DOCTYPE svg PUBLIC "-//W3C//DTD SVG 20010904//EN"
 "http://www.w3.org/TR/2001/REC-SVG-20010904/DTD/svg10.dtd">
<svg version="1.0" xmlns="http://www.w3.org/2000/svg"
 width="500.000000pt" height="500.000000pt" viewBox="0 0 500.000000 500.000000"
 preserveAspectRatio="xMidYMid meet">

<g transform="translate(0.000000,500.000000) scale(0.100000,-0.100000)"
fill="#000000" stroke="none">
<path d="M2385 3999 c-163 -21 -394 -94 -525 -166 -197 -109 -411 -298 -533
-469 -68 -97 -147 -245 -193 -362 -128 -324 -136 -733 -23 -1047 27 -75 34
-85 55 -85 31 0 31 12 -6 120 -53 160 -65 245 -64 460 0 142 5 214 17 265 l16
70 -7 -65 c-14 -131 -8 -420 11 -500 77 -329 238 -594 484 -797 190 -156 400
-252 648 -295 158 -27 414 -22 544 11 276 70 491 191 686 386 76 76 86 84 42
33 -161 -186 -400 -346 -628 -422 -311 -104 -590 -107 -889 -10 -204 67 -350
156 -512 313 -106 101 -138 119 -138 73 0 -46 192 -219 349 -314 451 -274
1037 -265 1509 24 416 254 699 714 741 1204 58 667 -313 1269 -923 1498 -198
75 -441 102 -661 75z m380 -64 c196 -31 372 -100 542 -210 125 -81 311 -271
388 -395 226 -366 280 -753 165 -1178 -12 -46 -24 -81 -27 -78 -2 2 3 28 12
58 38 128 58 403 39 541 -74 539 -439 982 -949 1151 -146 49 -298 69 -485 63
-226 -6 -355 -36 -546 -128 -107 -51 -243 -138 -309 -198 -28 -25 -32 -28 -15
-7 68 78 267 212 415 278 228 103 527 143 770 103z m-1215 -408 c0 -2 -12 -14
-27 -28 l-28 -24 24 28 c23 25 31 32 31 24z m-70 -80 c0 -2 -10 -12 -22 -23
l-23 -19 19 23 c18 21 26 27 26 19z m1201 -107 c5 -8 51 -118 103 -245 52
-126 171 -418 265 -647 94 -230 171 -420 171 -423 0 -3 -153 -5 -341 -5 -187
0 -339 4 -337 8 2 5 42 43 89 85 l86 77 127 0 c69 0 126 3 126 8 0 14 -384
961 -388 957 -3 -2 -24 -46 -47 -98 l-42 -93 57 -61 c240 -255 176 -657 -131
-818 -92 -48 -176 -65 -336 -65 l-133 0 0 -200 0 -200 -95 0 -95 0 0 353 c0
193 3 518 7 720 l6 368 266 -4 c146 -2 276 -7 289 -12 20 -7 25 -1 56 66 19
41 52 114 75 162 l40 88 87 -3 c65 -2 89 -7 95 -18z m-1544 -542 c-3 -8 -6 -5
-6 6 -1 11 2 17 5 13 3 -3 4 -12 1 -19z m2682 -777 c-6 -18 -13 -30 -15 -28
-2 2 1 18 7 36 6 18 13 30 15 28 2 -2 -1 -18 -7 -36z m-199 -365 c0 -2 -8 -10
-17 -17 -16 -13 -17 -12 -4 4 13 16 21 21 21 13z"/>
<path d="M1950 2540 l0 -340 133 0 c185 0 265 26 343 111 43 48 60 78 78 139
20 67 20 122 1 186 -17 58 -71 147 -86 142 -6 -2 -52 -97 -103 -210 -50 -114
-95 -210 -98 -213 -3 -4 -24 41 -46 98 l-41 105 70 152 c38 83 67 155 64 161
-4 5 -74 9 -161 9 l-154 0 0 -340z"/>
</g>
</svg>
